<svg width="193" height="55" viewBox="0 0 193 55" fill="none" xmlns="http://www.w3.org/2000/svg">
<path d="M3.448 28.176V30.544C3.448 33.5733 4.04533 35.6853 5.24 36.88C6.47733 38.0747 8.61067 38.672 11.64 38.672H16.888C19.6187 38.672 21.5813 38.3307 22.776 37.648C24.0133 36.9227 24.7387 35.7067 24.952 34C25.1653 32.9333 25.7413 32.4 26.68 32.4C27.2773 32.4 27.704 32.5493 27.96 32.848C28.2587 33.1467 28.3653 33.5733 28.28 34.128C27.9813 36.816 26.8933 38.8 25.016 40.08C23.1813 41.36 20.472 42 16.888 42H11.64C7.672 42 4.74933 41.0827 2.872 39.248C1.03733 37.4133 0.12 34.512 0.12 30.544V23.312C0.12 19.3013 1.03733 16.3787 2.872 14.544C4.74933 12.6667 7.672 11.7493 11.64 11.792H16.888C20.856 11.792 23.7573 12.7307 25.592 14.608C27.4693 16.4427 28.408 19.344 28.408 23.312V26.512C28.408 27.6213 27.8533 28.176 26.744 28.176H3.448ZM3.448 24.848H25.08V23.312C25.08 20.24 24.4827 18.1067 23.288 16.912C22.0933 15.7173 19.96 15.12 16.888 15.12H11.64C8.568 15.0773 6.43467 15.6533 5.24 16.848C4.04533 18.0427 3.448 20.1973 3.448 23.312V24.848ZM126.658 11.792C130.668 11.792 133.591 12.7093 135.426 14.544C137.26 16.3787 138.178 19.3013 138.178 23.312V30.48C138.178 34.4907 137.26 37.4133 135.426 39.248C133.591 41.0827 130.668 42 126.658 42H113.218V53.136C113.218 54.2453 112.663 54.8 111.554 54.8C110.444 54.8 109.89 54.2453 109.89 53.136V13.456C109.89 12.3467 110.444 11.792 111.554 11.792C112.663 11.792 113.218 12.3467 113.218 13.456V16.272C115.223 13.2853 118.892 11.792 124.226 11.792H126.658ZM134.85 23.312C134.85 20.2827 134.252 18.1707 133.058 16.976C131.863 15.7387 129.73 15.12 126.658 15.12H124.226C120.855 15.12 118.231 15.6533 116.354 16.72C114.476 17.7867 113.452 19.3867 113.282 21.52C113.282 21.7333 113.26 21.8827 113.218 21.968V38.672H126.658C129.73 38.672 131.863 38.0747 133.058 36.88C134.252 35.6427 134.85 33.5093 134.85 30.48V23.312ZM165.393 11.792C169.403 11.792 172.326 12.7307 174.161 14.608C175.995 16.4427 176.913 19.344 176.913 23.312V40.336C176.913 41.4453 176.358 42 175.249 42C174.139 42 173.585 41.4453 173.585 40.336V23.312C173.585 20.24 172.987 18.1067 171.793 16.912C170.598 15.7173 168.465 15.12 165.393 15.12H163.601C160.23 15.12 157.606 15.6533 155.729 16.72C153.851 17.7867 152.827 19.3653 152.657 21.456C152.657 21.6693 152.635 21.8187 152.593 21.904V40.336C152.593 41.4453 152.038 42 150.929 42C149.819 42 149.265 41.4453 149.265 40.336V13.456C149.265 12.3467 149.819 11.792 150.929 11.792C152.038 11.792 152.593 12.3467 152.593 13.456V16.528C154.641 13.3707 158.31 11.792 163.601 11.792H165.393ZM189.929 42C189.417 42 189.011 41.872 188.713 41.616C188.414 41.3173 188.265 40.8907 188.265 40.336V13.456C188.265 12.9013 188.414 12.496 188.713 12.24C189.011 11.9413 189.417 11.792 189.929 11.792C191.038 11.792 191.593 12.3467 191.593 13.456V40.336C191.593 41.4453 191.038 42 189.929 42ZM189.225 5.968C188.499 5.968 187.945 5.776 187.561 5.392C187.177 5.008 186.985 4.45333 186.985 3.728V2.32C186.985 1.59467 187.177 1.04 187.561 0.655998C187.945 0.271998 188.499 0.079998 189.225 0.079998H190.697C192.105 0.079998 192.809 0.826665 192.809 2.32V3.728C192.809 5.22133 192.105 5.968 190.697 5.968H189.225Z" fill="#5D7C82"/>
<path d="M61.212 39.248C61.5107 39.6747 61.66 40.0373 61.66 40.336C61.66 40.7627 61.404 41.168 60.892 41.552C60.5507 41.8507 60.188 42 59.804 42C59.3773 42 58.972 41.7653 58.588 41.296L49.116 29.136L39.58 41.232C39.196 41.744 38.748 42 38.236 42C37.852 42 37.5107 41.8507 37.212 41.552C36.7427 41.168 36.508 40.7627 36.508 40.336C36.508 39.9093 36.6573 39.5253 36.956 39.184L47.068 26.448L37.788 14.544C37.4893 14.2027 37.34 13.84 37.34 13.456C37.34 13.0293 37.5747 12.624 38.044 12.24C38.3853 11.9413 38.748 11.792 39.132 11.792C39.6013 11.792 40.028 12.0267 40.412 12.496L49.436 24.08L58.78 12.496C59.164 12.0267 59.5907 11.792 60.06 11.792C60.444 11.792 60.8067 11.9413 61.148 12.24C61.6173 12.624 61.852 13.0293 61.852 13.456C61.852 13.712 61.7027 14.0747 61.404 14.544L51.484 26.768L61.212 39.248ZM78.693 54.8C75.877 54.8 73.8077 54.1387 72.485 52.816C71.1623 51.4933 70.501 49.4027 70.501 46.544C70.501 45.4347 71.0557 44.88 72.165 44.88C73.2743 44.88 73.829 45.4347 73.829 46.544C73.829 48.464 74.1703 49.7653 74.853 50.448C75.5357 51.1307 76.8157 51.472 78.693 51.472H89.765C91.6423 51.472 92.9223 51.1307 93.605 50.448C94.2877 49.7653 94.629 48.464 94.629 46.544V37.712C93.4343 39.248 91.9197 40.3573 90.085 41.04C88.293 41.7227 86.1383 42.064 83.621 42.064H81.829C77.9037 42.064 75.0237 41.168 73.189 39.376C71.397 37.584 70.501 34.7253 70.501 30.8V13.392C70.501 12.2827 71.0557 11.728 72.165 11.728C73.2743 11.728 73.829 12.2827 73.829 13.392V30.8C73.829 33.7867 74.405 35.856 75.557 37.008C76.7517 38.16 78.8423 38.736 81.829 38.736H83.621C87.333 38.736 90.085 38.0747 91.877 36.752C93.7117 35.4293 94.629 33.4453 94.629 30.8V13.392C94.629 12.2827 95.1837 11.728 96.293 11.728C97.4023 11.728 97.957 12.2827 97.957 13.392V46.544C97.957 49.4027 97.2957 51.4933 95.973 52.816C94.6503 54.1387 92.581 54.8 89.765 54.8H78.693Z" fill="#EC5252"/>
</svg>
